<?xml version="1.0" standalone="no"?>
<!DOCTYPE svg PUBLIC "-//W3C//DTD SVG 20010904//EN"
 "http://www.w3.org/TR/2001/REC-SVG-20010904/DTD/svg10.dtd">
<svg version="1.0" xmlns="http://www.w3.org/2000/svg"
 width="920.000000pt" height="920.000000pt" viewBox="0 0 920.000000 920.000000"
 preserveAspectRatio="xMidYMid meet">
<metadata>
Created by potrace 1.11, written by Peter Selinger 2001-2013
</metadata>
<g transform="translate(0.000000,920.000000) scale(0.100000,-0.100000)"
fill="#000000" stroke="none">
<path d="M4280 9193 c-201 -18 -277 -28 -409 -49 -1127 -180 -2155 -787 -2873
-1694 -228 -290 -441 -641 -587 -972 -205 -464 -319 -895 -377 -1428 -24 -215
-24 -676 0 -895 84 -773 321 -1446 732 -2073 172 -262 322 -448 549 -681 255
-262 481 -449 780 -646 1243 -818 2817 -977 4211 -425 296 118 668 318 930
503 1242 874 1964 2261 1964 3772 0 1229 -477 2381 -1345 3250 -776 777 -1780
1242 -2880 1335 -109 9 -610 12 -695 3z m2502 -2484 c88 -24 121 -94 106 -222
-23 -195 -363 -1951 -528 -2722 -86 -407 -184 -851 -257 -1175 -48 -212 -79
-266 -177 -318 -67 -35 -177 -37 -246 -5 -25 12 -217 153 -427 315 -210 161
-468 359 -575 441 -894 682 -927 708 -921 723 5 13 708 648 2060 1863 177 158
204 193 185 235 -24 52 -70 42 -210 -48 -37 -24 -247 -158 -467 -298 -1014
-646 -1351 -861 -1773 -1130 -250 -159 -460 -292 -467 -294 -16 -7 -1159 369
-1227 402 -92 46 -148 112 -148 174 0 83 56 141 196 204 412 184 1390 594
1840 771 93 37 207 82 254 100 47 19 157 61 245 95 88 34 205 79 260 100 154
60 414 158 700 265 143 53 294 109 335 125 42 16 159 58 260 95 102 36 203 73
225 81 107 42 508 184 570 202 118 35 133 37 187 21z"/>
</g>
</svg>
